<svg xmlns="http://www.w3.org/2000/svg" width="48" height="48" viewBox="0 0 48 48">
  <g id="Group_6986" data-name="Group 6986" transform="translate(1 1)">
    <rect id="Rectangle_2173" data-name="Rectangle 2173" width="20" height="27" rx="3" transform="translate(26 6)" fill="none" stroke="#523680" stroke-linejoin="round" stroke-width="2"/>
    <line id="Line_503" data-name="Line 503" y2="6" transform="translate(40 34)" fill="none" stroke="#523680" stroke-linejoin="round" stroke-width="2"/>
    <path id="Path_5816" data-name="Path 5816" d="M913,579a6,6,0,0,1-6-6V533h40v5" transform="translate(-907 -533)" fill="none" stroke="#523680" stroke-linejoin="round" stroke-width="2"/>
    <path id="Path_5817" data-name="Path 5817" d="M947,573" transform="translate(-907 -533)" fill="none" stroke="#523680" stroke-linejoin="round" stroke-width="2"/>
    <path id="Path_5818" data-name="Path 5818" d="M913,579a6,6,0,0,0,6-6h34a6,6,0,0,1-6,6Z" transform="translate(-907 -533)" fill="none" stroke="#523680" stroke-linejoin="round" stroke-width="2"/>
    <g id="Group_4684" data-name="Group 4684" transform="translate(5 4)">
      <path id="Path_5819" data-name="Path 5819" d="M912,549a3,3,0,1,0,3-3,3,3,0,1,1,3-3" transform="translate(-912 -537)" fill="none" stroke="#523680" stroke-linejoin="round" stroke-width="2"/>
      <line id="Line_504" data-name="Line 504" y2="3" transform="translate(3 15)" fill="none" stroke="#523680" stroke-linejoin="round" stroke-width="2"/>
      <line id="Line_505" data-name="Line 505" y2="3" transform="translate(3)" fill="none" stroke="#523680" stroke-linejoin="round" stroke-width="2"/>
    </g>
    <line id="Line_506" data-name="Line 506" x2="8" transform="translate(15 10)" fill="none" stroke="#523680" stroke-linejoin="round" stroke-width="2"/>
    <line id="Line_507" data-name="Line 507" x2="8" transform="translate(15 5)" fill="none" stroke="#523680" stroke-linejoin="round" stroke-width="2"/>
    <line id="Line_508" data-name="Line 508" x2="8" transform="translate(15 15)" fill="none" stroke="#523680" stroke-linejoin="round" stroke-width="2"/>
    <line id="Line_509" data-name="Line 509" x2="8" transform="translate(15 20)" fill="none" stroke="#523680" stroke-linejoin="round" stroke-width="2"/>
    <line id="Line_510" data-name="Line 510" x2="6.001" transform="translate(16.999 25)" fill="none" stroke="#523680" stroke-linejoin="round" stroke-width="2"/>
    <line id="Line_511" data-name="Line 511" x2="10.999" transform="translate(4 25)" fill="none" stroke="#523680" stroke-linejoin="round" stroke-width="2"/>
    <line id="Line_512" data-name="Line 512" x2="10" transform="translate(13 30)" fill="none" stroke="#523680" stroke-linejoin="round" stroke-width="2"/>
    <line id="Line_513" data-name="Line 513" x2="7" transform="translate(4 30)" fill="none" stroke="#523680" stroke-linejoin="round" stroke-width="2"/>
    <line id="Line_514" data-name="Line 514" x2="14" transform="translate(4 35)" fill="none" stroke="#523680" stroke-linejoin="round" stroke-width="2"/>
    <line id="Line_515" data-name="Line 515" x2="20" transform="translate(26 13)" fill="none" stroke="#523680" stroke-linejoin="round" stroke-width="2"/>
    <line id="Line_516" data-name="Line 516" x2="2" transform="translate(33 17)" fill="none" stroke="#523680" stroke-linejoin="round" stroke-width="2"/>
    <line id="Line_517" data-name="Line 517" x2="2" transform="translate(29 17)" fill="none" stroke="#523680" stroke-linejoin="round" stroke-width="2"/>
    <line id="Line_518" data-name="Line 518" x2="2" transform="translate(41 17)" fill="none" stroke="#523680" stroke-linejoin="round" stroke-width="2"/>
    <line id="Line_519" data-name="Line 519" x2="2" transform="translate(37 17)" fill="none" stroke="#523680" stroke-linejoin="round" stroke-width="2"/>
    <line id="Line_520" data-name="Line 520" x2="2" transform="translate(33 21)" fill="none" stroke="#523680" stroke-linejoin="round" stroke-width="2"/>
    <line id="Line_521" data-name="Line 521" x2="2" transform="translate(29 21)" fill="none" stroke="#523680" stroke-linejoin="round" stroke-width="2"/>
    <line id="Line_522" data-name="Line 522" x2="2" transform="translate(41 21)" fill="none" stroke="#523680" stroke-linejoin="round" stroke-width="2"/>
    <line id="Line_523" data-name="Line 523" x2="2" transform="translate(37 21)" fill="none" stroke="#523680" stroke-linejoin="round" stroke-width="2"/>
    <line id="Line_524" data-name="Line 524" x2="2" transform="translate(33 25)" fill="none" stroke="#523680" stroke-linejoin="round" stroke-width="2"/>
    <line id="Line_525" data-name="Line 525" x2="2" transform="translate(29 25)" fill="none" stroke="#523680" stroke-linejoin="round" stroke-width="2"/>
    <line id="Line_526" data-name="Line 526" y2="6" transform="translate(42 24)" fill="none" stroke="#523680" stroke-linejoin="round" stroke-width="2"/>
    <line id="Line_527" data-name="Line 527" x2="2" transform="translate(37 25)" fill="none" stroke="#523680" stroke-linejoin="round" stroke-width="2"/>
    <line id="Line_528" data-name="Line 528" x2="2" transform="translate(33 29)" fill="none" stroke="#523680" stroke-linejoin="round" stroke-width="2"/>
    <line id="Line_529" data-name="Line 529" x2="2" transform="translate(29 29)" fill="none" stroke="#523680" stroke-linejoin="round" stroke-width="2"/>
    <line id="Line_530" data-name="Line 530" x2="2" transform="translate(37 29)" fill="none" stroke="#523680" stroke-linejoin="round" stroke-width="2"/>
  </g>
</svg>
